<?xml version="1.0" encoding="utf-8"?>
<!-- Generator: Adobe Illustrator 17.0.2, SVG Export Plug-In . SVG Version: 6.00 Build 0)  -->
<!DOCTYPE svg PUBLIC "-//W3C//DTD SVG 1.1//EN" "http://www.w3.org/Graphics/SVG/1.1/DTD/svg11.dtd">
<svg version="1.1" id="Calque_1" xmlns="http://www.w3.org/2000/svg" xmlns:xlink="http://www.w3.org/1999/xlink" x="0px" y="0px"
	 width="500px" height="500px" viewBox="0 0 500 500" enable-background="new 0 0 500 500" xml:space="preserve">
<g>
	<path fill="#010101" d="M353.431,278.008c-13.783,0-25-11.233-25-25c0-13.783,11.217-25,25-25s25,11.217,25,25
		C378.431,266.775,367.214,278.008,353.431,278.008z M353.431,244.658c-4.6,0-8.333,3.733-8.333,8.333
		c0,4.583,3.733,8.333,8.333,8.333c4.6,0,8.333-3.767,8.333-8.333C361.764,248.375,358.031,244.658,353.431,244.658z"/>
	<path fill="#010101" d="M56.814,355.308c-2.55,0-5.033-1.167-6.633-3.267c-2.15-2.833-2.267-6.683-0.3-9.683
		c3.45-5.15,6.65-9.5,9.583-13.567c12.617-17.317,18.95-26.033,18.95-59.117c0-33.1-6.333-41.8-18.95-59.117
		c-2.933-4.05-6.15-8.45-9.583-13.6c-1.983-2.95-1.867-6.85,0.3-9.683c2.15-2.833,5.9-3.967,9.25-2.867
		c8.6,2.85,16.717,4.65,24.583,6.4c20.767,4.617,40.517,9.017,51.533,31.933c26.8-13.183,65.633-22.533,109.183-26.183
		c-1.117-14.1-5.6-26.417-12.867-35.95c-1.65-2.15-2.133-4.983-1.317-7.567c0.817-2.583,2.85-4.617,5.433-5.433
		c6.25-1.967,11.95-2.917,17.45-2.917c29.567,0,54.083,22.133,57.833,50.7c56.583,2.717,105.9,14.45,136.2,32.5
		c2.317,1.367,3.817,3.75,4.033,6.417c0.233,2.667-0.817,5.267-2.833,7.033l-33.533,29.2l27.567,32.167
		c1.667,1.917,2.35,4.517,1.817,7.017c-0.483,2.483-2.1,4.633-4.367,5.85c-35.55,18.233-92.883,29.133-153.433,29.133
		c-60,0-115.5-10.383-151.217-28.083c-11,22.883-30.733,27.3-51.5,31.9c-7.85,1.733-15.967,3.567-24.567,6.417
		C58.581,355.192,57.697,355.308,56.814,355.308z M76.997,206.325c11.05,15.533,18.1,28.817,18.1,63.35
		c0,34.5-7.05,47.783-18.1,63.317c1.15-0.25,2.283-0.483,3.4-0.75c22.417-4.983,35.95-7.983,42.9-29.917
		c0.767-2.433,2.583-4.35,4.95-5.233c2.367-0.95,5-0.7,7.2,0.55c32.1,18.75,90.083,30.367,151.333,30.367
		c52.717,0,102.5-8.417,136.15-22.783l-25.817-30.133c-2.983-3.467-2.6-8.7,0.85-11.7l30.633-26.683
		c-29.833-14.15-75.5-23.333-125.467-25c-2.4-0.083-4.6-1.167-6.15-3.033c-1.533-1.833-2.183-4.233-1.8-6.6
		c-0.05-22.567-19.9-41.833-43.167-40.733c6.35,12.217,9.767,26.6,9.767,41.633l-0.133,1.7c-0.417,4.033-3.7,7.567-7.75,7.867
		c-49.233,3.317-92.417,13.95-118.467,29.15c-2.217,1.267-4.85,1.467-7.2,0.567c-2.367-0.917-4.183-2.85-4.95-5.25
		c-6.967-21.933-20.5-24.933-42.917-29.9C79.281,206.808,78.147,206.575,76.997,206.325L76.997,206.325z"/>
</g>
</svg>
