<?xml version="1.0" encoding="UTF-8" standalone="no"?>
<!-- Created with Inkscape (http://www.inkscape.org/) -->

<svg
   xmlns:dc="http://purl.org/dc/elements/1.1/"
   xmlns:cc="http://creativecommons.org/ns#"
   xmlns:rdf="http://www.w3.org/1999/02/22-rdf-syntax-ns#"
   xmlns:svg="http://www.w3.org/2000/svg"
   xmlns="http://www.w3.org/2000/svg"
   xmlns:sodipodi="http://sodipodi.sourceforge.net/DTD/sodipodi-0.dtd"
   xmlns:inkscape="http://www.inkscape.org/namespaces/inkscape"
   width="500"
   height="500"
   viewBox="0 0 500.00001 500.00001"
   id="svg2"
   version="1.1"
   inkscape:version="0.91 r13725"
   sodipodi:docname="groupeat-logo.svg">
  <defs
     id="defs4" />
  <sodipodi:namedview
     id="base"
     pagecolor="#ffffff"
     bordercolor="#666666"
     borderopacity="1.0"
     inkscape:pageopacity="0.0"
     inkscape:pageshadow="2"
     inkscape:zoom="0.35"
     inkscape:cx="-54.694219"
     inkscape:cy="387.1429"
     inkscape:document-units="px"
     inkscape:current-layer="layer1"
     showgrid="false"
     units="px"
     fit-margin-top="0"
     fit-margin-left="0"
     fit-margin-right="0"
     fit-margin-bottom="0"
     inkscape:window-width="1366"
     inkscape:window-height="746"
     inkscape:window-x="-8"
     inkscape:window-y="-8"
     inkscape:window-maximized="1" />
  <metadata
     id="metadata7">
    <rdf:RDF>
      <cc:Work
         rdf:about="">
        <dc:format>image/svg+xml</dc:format>
        <dc:type
           rdf:resource="http://purl.org/dc/dcmitype/StillImage" />
        <dc:title></dc:title>
      </cc:Work>
    </rdf:RDF>
  </metadata>
  <g
     inkscape:label="Calque 1"
     inkscape:groupmode="layer"
     id="layer1"
     transform="translate(80.305781,-419.50506)">
    <path
       id="path3337"
       d="m 330.97737,642.17458 c -2.98688,-2.10165 -5.79008,-3.1585 -8.42467,-3.1585 l -76.39106,0 c -3.86005,0 -6.7566,1.10201 -8.68662,3.29399 -1.93304,2.198 -2.89655,4.95905 -2.89655,8.28917 l 0,68.96303 c -6.8409,1.40913 -13.29037,2.54426 -19.3424,3.42346 -6.05504,0.87619 -12.15525,1.31278 -18.29459,1.31278 -14.56702,0 -27.89955,-2.71589 -40.00662,-8.15669 -12.10707,-5.4378 -22.50392,-12.85379 -31.19054,-22.24196 -8.68662,-9.38215 -15.48838,-20.39926 -20.39925,-33.03324 -4.9169,-12.63399 -7.367821,-26.14116 -7.367821,-40.53054 0,-14.38937 2.453931,-27.94471 7.367821,-40.66602 4.91087,-12.72432 11.71263,-23.8197 20.39925,-33.2982 8.68662,-9.47248 19.08045,-16.9758 31.19054,-22.50091 12.10707,-5.53113 25.4396,-8.29218 40.00662,-8.29218 11.58316,0 22.45875,1.75539 32.6388,5.26617 10.17403,3.51078 19.73985,8.42165 28.68843,14.73865 3.85704,2.46296 6.93123,3.20366 9.21353,2.23714 2.2793,-0.9605 4.56161,-2.85138 6.84392,-5.66061 l 42.64121,-61.58918 c 2.27629,-3.68843 2.63158,-6.97338 1.05083,-9.87294 -1.57775,-2.89353 -3.86006,-5.21799 -6.84091,-6.97338 -16.49704,-11.05625 -34.08707,-19.51403 -52.77309,-25.40046 -18.68602,-5.87739 -38.55835,-8.8191 -59.617,-8.8191 -18.60171,0 -36.45369,2.41479 -53.56498,7.23835 -17.10827,4.82958 -33.12056,11.58015 -48.036853,20.26978 -14.913285,8.68361 -28.471637,19.17379 -40.663014,31.4555 -12.197398,12.2817 -22.681561,25.92436 -31.455498,40.92496 -8.776948,15.00362 -15.52752,31.06107 -20.266771,48.16633 -4.739251,17.11128 -7.105865,34.96628 -7.105865,53.56498 0,18.60171 2.366614,36.45369 7.105865,53.56196 1.541612,5.57028 3.378297,10.97194 5.347465,16.30134 -0.370348,-0.86114 -0.809948,-1.68614 -1.168252,-2.55631 57.680958,127.05649 189.314103,231.07311 189.314103,231.07311 0,0 79.65795,-54.03469 135.08972,-134.87896 0.1355,-0.19872 0.23787,-0.40949 0.35831,-0.61122 0.56606,-0.96953 1.14416,-1.93304 1.70721,-2.90558 l 0,-3.11032 0,-13.33554 0,-114.06721 c 0,-3.50476 -1.49343,-6.31398 -4.47127,-8.42165 z"
       inkscape:connector-curvature="0"
       style="fill:#ff4e50" />
  </g>
</svg>
