<?xml version="1.0" encoding="utf-8"?>
<!-- Generator: Adobe Illustrator 17.0.2, SVG Export Plug-In . SVG Version: 6.00 Build 0)  -->
<!DOCTYPE svg PUBLIC "-//W3C//DTD SVG 1.1//EN" "http://www.w3.org/Graphics/SVG/1.1/DTD/svg11.dtd">
<svg version="1.1" id="Calque_1" xmlns="http://www.w3.org/2000/svg" xmlns:xlink="http://www.w3.org/1999/xlink" x="0px" y="0px"
	 width="500px" height="500px" viewBox="0 0 500 500" enable-background="new 0 0 500 500" xml:space="preserve">
<path fill="#010101" d="M249.974,419.203c-72.253,0-141.882-21.682-201.366-62.735c-11.086-7.619-18.548-19.136-20.977-32.356
	c-2.429-13.221,0.431-26.657,8.089-37.762c15.218-22.113,48.006-28.204,70.177-12.888c42.561,29.34,92.388,44.852,144.096,44.852
	c51.727,0,101.535-15.512,144.096-44.872c22.113-15.316,54.939-9.206,70.158,12.907c7.678,11.086,10.518,24.483,8.109,37.743
	c-2.448,13.26-9.911,24.777-20.977,32.376C391.856,397.522,322.227,419.203,249.974,419.203L249.974,419.203z M77.302,284.137
	c-10.185,0-19.684,4.994-25.462,13.397c-4.681,6.777-6.424,14.964-4.936,23.073s6.052,15.101,12.829,19.802
	c56.212,38.761,122.002,59.229,190.26,59.229c68.238,0,134.048-20.468,190.26-59.229c6.796-4.681,11.34-11.732,12.829-19.802
	c1.489-8.109-0.274-16.296-4.936-23.073c-9.343-13.514-29.34-17.314-42.913-7.913c-45.851,31.632-99.537,48.339-155.24,48.339
	s-109.369-16.707-155.221-48.339C89.583,285.998,83.531,284.137,77.302,284.137L77.302,284.137z"/>
<path fill="#010101" d="M216.109,227.611c-2.507,0-5.014-0.96-6.934-2.86c-14.553-14.533-7.795-34.805-2.37-51.1
	c5.21-15.591,7.952-25.482,2.37-31.064c-3.819-3.819-3.819-10.028,0-13.847c3.819-3.819,10.028-3.819,13.847,0
	c14.553,14.553,7.795,34.824,2.37,51.1c-5.19,15.61-7.952,25.482-2.37,31.064c3.819,3.819,3.819,10.028,0,13.847
	C221.104,226.671,218.597,227.611,216.109,227.611z"/>
<path fill="#010101" d="M257.182,227.611c-2.507,0-5.014-0.96-6.934-2.86c-13.985-13.985-8.5-41.425-2.683-70.491
	c3.898-19.508,9.245-46.204,2.683-52.765c-3.819-3.819-3.819-10.028,0-13.847c3.819-3.819,10.028-3.819,13.867,0
	c13.965,13.965,8.481,41.405,2.683,70.471c-3.898,19.508-9.264,46.223-2.683,52.785c3.8,3.819,3.8,10.028,0,13.847
	C262.196,226.671,259.689,227.611,257.182,227.611L257.182,227.611z"/>
<path fill="#010101" d="M298.254,227.611c-2.507,0-5.014-0.96-6.934-2.86c-14.553-14.533-7.795-34.805-2.37-51.1
	c5.19-15.591,7.932-25.482,2.35-31.064c-3.8-3.819-3.8-10.028,0-13.847c3.819-3.819,10.048-3.819,13.847,0
	c14.572,14.553,7.795,34.824,2.37,51.1c-5.19,15.591-7.932,25.482-2.37,31.064c3.819,3.819,3.819,10.028,0,13.847
	C303.288,226.671,300.761,227.611,298.254,227.611L298.254,227.611z"/>
<path fill="#010101" d="M69.624,275.088c0.548-4.054,1.743-7.991,4.133-11.458c4.955-7.188,13.142-11.478,21.897-11.478
	c5.367,0,10.577,1.626,15.003,4.681c41.131,28.38,89.352,43.364,139.297,43.364s98.166-15.003,139.277-43.364
	c11.693-8.069,28.948-4.818,36.92,6.796c2.39,3.467,3.584,7.404,4.133,11.458c7.188,1.351,13.945,4.72,19.547,9.793
	c1.567-11.419-0.999-22.837-7.58-32.376c-13.887-20.174-43.795-25.775-64.125-11.83c-37.86,26.108-82.184,39.917-128.172,39.917
	s-90.331-13.808-128.172-39.917c-20.233-13.965-50.199-8.383-64.145,11.83c-6.581,9.538-9.127,20.977-7.56,32.376
	C55.699,279.809,62.456,276.44,69.624,275.088L69.624,275.088z"/>
</svg>
