<?xml version="1.0" encoding="utf-8"?>
<!-- Generator: Adobe Illustrator 17.0.2, SVG Export Plug-In . SVG Version: 6.00 Build 0)  -->
<!DOCTYPE svg PUBLIC "-//W3C//DTD SVG 1.1//EN" "http://www.w3.org/Graphics/SVG/1.1/DTD/svg11.dtd">
<svg version="1.1" id="Calque_1" xmlns="http://www.w3.org/2000/svg" xmlns:xlink="http://www.w3.org/1999/xlink" x="0px" y="0px"
	 width="500px" height="500px" viewBox="0 0 500 500" enable-background="new 0 0 500 500" xml:space="preserve">
<g>
	<path fill="#010101" d="M275.714,341.1c-5.067-0.367-10.05-0.083-15.2-0.283c-91.5-3.183-147.717-42.15-190.633-79.85
		c-17.317-15.2-24.117-33.683-18.167-49.467c8-21.233,37.367-28.283,63.55-13.35c42.85,24.467,97.083,26.95,145.633,5.85
		c74.683-32.4,129.217-20.967,142.667,28.367c7.783,28.55,4.717,52.183-9.083,70.233C374.964,328.133,334.998,341.1,275.714,341.1
		L275.714,341.1z M86.114,206.433c-9.05,0-16.267,4.2-18.817,10.967c-3.4,9.017,1.683,20.6,13.583,31.05
		c40.7,35.767,93.933,72.7,180.217,75.717c4.983,0.183,9.867,0.283,14.617,0.283l0,0c53.067,0,89.55-11.05,105.5-31.933
		c10.483-13.717,12.567-32.467,6.25-55.733c-6.283-23.133-23.333-34.85-50.683-34.85c-19.367,0-42.683,5.867-69.233,17.383
		c-53.367,23.167-113.2,20.383-160.55-6.65C99.864,208.583,92.648,206.433,86.114,206.433L86.114,206.433z"/>
	<path fill="#010101" d="M366.314,241.533c-4.067,0-7.617-3-8.233-7.15c-0.65-4.533,2.5-8.767,7.1-9.417
		c21.417-3.133,26.067-15.15,32-30.4c6.083-15.883,13.7-35.667,44.883-35.667c4.583,0,8.333,3.733,8.333,8.333
		c0,4.583-3.75,8.333-8.333,8.333c-19.767,0-23.6,9.933-29.4,24.983c-6.25,16.217-14.033,36.4-45.15,40.883
		C367.081,241.5,366.731,241.533,366.314,241.533L366.314,241.533z"/>
	<path fill="#010101" d="M363.014,324.15c-1.817,0-3.717-0.6-5.233-1.85c-3.55-2.9-4.1-8.15-1.2-11.717
		c3.133-3.817,5.917-9.467,1.7-14.733c-5.7-6.983-20.5-9.983-36.75-1.733c-3.767,1.9-8.267,0.7-10.65-2.75
		c-2.35-3.45-1.783-8.117,1.333-10.9c11.817-10.567,12.7-20.917,9.867-26.567c-3.017-5.983-10.25-8.5-19.333-6.6
		c-3.933,0.767-7.9-1.35-9.383-5.1c-1.5-3.75-0.1-8,3.317-10.133c10.6-6.633,11.233-15.033,8.567-20.233
		c-1.067-2.067-3.75-5.2-6.833-3.9c-4.217,1.75-9.133-0.267-10.867-4.517c-1.75-4.267,0.267-9.133,4.517-10.867
		c10.517-4.35,22.3,0.567,28.05,11.65c3.967,7.733,4.583,18.05-0.517,27.583c7.65,2.467,13.867,7.517,17.417,14.65
		c4.033,8,4.133,17.2,0.783,26.167c14.683-1.05,26.85,4.583,33.5,12.8c8.4,10.4,7.75,24.083-1.7,35.717
		C367.831,323.117,365.464,324.15,363.014,324.15L363.014,324.15z"/>
</g>
</svg>
