<?xml version="1.0" encoding="utf-8"?>
<!-- Generator: Adobe Illustrator 17.0.2, SVG Export Plug-In . SVG Version: 6.00 Build 0)  -->
<!DOCTYPE svg PUBLIC "-//W3C//DTD SVG 1.1//EN" "http://www.w3.org/Graphics/SVG/1.1/DTD/svg11.dtd">
<svg version="1.1" id="Calque_1" xmlns="http://www.w3.org/2000/svg" xmlns:xlink="http://www.w3.org/1999/xlink" x="0px" y="0px"
	 width="500px" height="500px" viewBox="0 0 500 500" enable-background="new 0 0 500 500" xml:space="preserve">
<g>
	<path fill="#010101" d="M250,40.006c115.764,0,209.994,94.211,209.994,209.994c0,115.764-94.23,209.994-209.994,209.994
		c-115.783,0-209.994-94.23-209.994-209.994C40.006,134.217,134.217,40.006,250,40.006z M250,20.916
		C123.488,20.916,20.916,123.488,20.916,250S123.488,479.084,250,479.084S479.084,376.512,479.084,250S376.512,20.916,250,20.916
		L250,20.916z"/>
	<path fill="#010101" d="M250,78.187c94.726,0,171.813,77.068,171.813,171.813S344.726,421.813,250,421.813
		S78.187,344.746,78.187,250S155.274,78.187,250,78.187z M250,59.096C144.564,59.096,59.096,144.564,59.096,250
		S144.564,440.904,250,440.904c105.398,0,190.904-85.468,190.904-190.904S355.398,59.096,250,59.096L250,59.096z"/>
	<path fill="#010101" d="M250,145.003c-15.788,0-28.636-12.848-28.636-28.636S234.212,87.732,250,87.732
		s28.636,12.848,28.636,28.636S265.788,145.003,250,145.003z M250,106.822c-5.269,0-9.545,4.276-9.545,9.545
		s4.276,9.545,9.545,9.545s9.545-4.276,9.545-9.545S255.269,106.822,250,106.822z"/>
	<path fill="#010101" d="M250,412.268c-15.788,0-28.636-12.848-28.636-28.636c0-15.788,12.848-28.636,28.636-28.636
		s28.636,12.848,28.636,28.636C278.636,399.42,265.788,412.268,250,412.268z M250,374.087c-5.269,0-9.545,4.295-9.545,9.545
		s4.276,9.545,9.545,9.545s9.545-4.295,9.545-9.545S255.269,374.087,250,374.087z"/>
	<path fill="#010101" d="M116.367,278.636c-15.788,0-28.636-12.848-28.636-28.636s12.848-28.636,28.636-28.636
		s28.636,12.848,28.636,28.636S132.155,278.636,116.367,278.636z M116.367,240.455c-5.269,0-9.545,4.276-9.545,9.545
		s4.276,9.545,9.545,9.545s9.545-4.276,9.545-9.545S121.636,240.455,116.367,240.455z"/>
	<path fill="#010101" d="M383.633,278.636c-15.788,0-28.636-12.848-28.636-28.636s12.848-28.636,28.636-28.636
		c15.788,0,28.636,12.848,28.636,28.636S399.42,278.636,383.633,278.636z M383.633,240.455c-5.25,0-9.545,4.276-9.545,9.545
		s4.295,9.545,9.545,9.545s9.545-4.276,9.545-9.545S388.882,240.455,383.633,240.455z"/>
	<path fill="#010101" d="M155.522,184.157c-7.636,0-14.833-2.978-20.255-8.362c-5.422-5.422-8.4-12.619-8.4-20.293
		c0-7.636,2.997-14.833,8.4-20.236c10.786-10.786,29.666-10.805,40.491,0c11.168,11.168,11.168,29.323,0,40.491
		C170.355,181.179,163.158,184.157,155.522,184.157z M155.522,145.977c-2.539,0-4.944,0.993-6.758,2.787
		c-1.814,1.814-2.806,4.2-2.806,6.739c0,2.558,0.993,4.964,2.806,6.758c3.608,3.589,9.889,3.589,13.497,0
		c3.723-3.723,3.723-9.774,0-13.497C160.466,146.969,158.061,145.977,155.522,145.977z"/>
	<path fill="#010101" d="M344.497,373.133c-7.636,0-14.833-2.978-20.274-8.4c-11.149-11.13-11.149-29.304,0-40.491
		c10.862-10.824,29.724-10.805,40.529,0c11.187,11.187,11.187,29.323,0,40.491C359.369,370.136,352.172,373.133,344.497,373.133
		L344.497,373.133z M344.497,334.933c-2.558,0-4.983,0.993-6.758,2.787c-3.723,3.723-3.723,9.793,0,13.478
		c3.608,3.627,9.927,3.627,13.497,0c3.723-3.723,3.723-9.774,0-13.497C349.442,335.926,347.055,334.933,344.497,334.933
		L344.497,334.933L344.497,334.933z"/>
	<path fill="#010101" d="M155.503,373.133c-7.655,0-14.833-2.978-20.255-8.4c-5.403-5.364-8.381-12.561-8.381-20.217
		c0-7.655,2.978-14.852,8.4-20.293c10.805-10.786,29.686-10.786,40.491,0c11.168,11.187,11.149,29.361,0,40.51
		C170.355,370.136,163.158,373.133,155.503,373.133z M155.522,334.933c-2.539,0-4.944,0.993-6.758,2.787
		c-1.814,1.814-2.806,4.238-2.806,6.758s0.993,4.925,2.787,6.72c3.627,3.627,9.889,3.627,13.516,0c3.723-3.723,3.723-9.774,0-13.516
		C160.466,335.926,158.061,334.933,155.522,334.933z"/>
	<path fill="#010101" d="M344.497,184.138c-7.636,0-14.833-2.978-20.274-8.362c-11.149-11.168-11.149-29.342,0-40.51
		c10.862-10.824,29.647-10.824,40.51,0c11.168,11.168,11.168,29.342,0,40.51C359.331,181.179,352.133,184.138,344.497,184.138z
		 M344.497,145.977c-2.558,0-4.944,0.993-6.758,2.806c-3.684,3.704-3.684,9.774,0,13.497c3.608,3.589,9.946,3.589,13.535,0
		c3.704-3.704,3.704-9.774,0-13.497C349.442,146.969,347.036,145.977,344.497,145.977z"/>
	<path fill="#010101" d="M250,278.636c-15.788,0-28.636-12.848-28.636-28.636s12.848-28.636,28.636-28.636
		s28.636,12.848,28.636,28.636S265.788,278.636,250,278.636z M250,240.455c-5.269,0-9.545,4.276-9.545,9.545
		s4.276,9.545,9.545,9.545s9.545-4.276,9.545-9.545S255.269,240.455,250,240.455z"/>
	<path fill="#010101" d="M230.91,183.184c-2.444,0-4.887-0.935-6.758-2.787l-19.09-19.09c-3.723-3.723-3.723-9.774,0-13.497
		c3.723-3.723,9.774-3.723,13.497,0l19.09,19.09c3.723,3.723,3.723,9.774,0,13.497C235.797,182.248,233.353,183.184,230.91,183.184z
		"/>
	<path fill="#010101" d="M269.09,183.184c-2.444,0-4.887-0.935-6.758-2.787c-3.723-3.723-3.723-9.774,0-13.497l19.09-19.09
		c3.704-3.723,9.774-3.723,13.497,0c3.704,3.723,3.704,9.774,0,13.497l-19.09,19.09C273.978,182.248,271.534,183.184,269.09,183.184
		z"/>
	<path fill="#010101" d="M173.639,240.455c-2.444,0-4.887-0.935-6.758-2.787l-19.09-19.09c-3.723-3.723-3.723-9.774,0-13.497
		c3.723-3.723,9.774-3.723,13.497,0l19.09,19.09c3.723,3.723,3.723,9.774,0,13.497C178.526,239.519,176.082,240.455,173.639,240.455
		z"/>
	<path fill="#010101" d="M173.639,307.271h-19.09c-5.269,0-9.545-4.295-9.545-9.545s4.276-9.545,9.545-9.545h19.09
		c5.269,0,9.545,4.295,9.545,9.545S178.907,307.271,173.639,307.271z"/>
	<path fill="#010101" d="M240.455,335.907c-5.269,0-9.545-4.295-9.545-9.545v-19.09c0-5.25,4.276-9.545,9.545-9.545
		c5.269,0,9.545,4.295,9.545,9.545v19.09C250,331.611,245.724,335.907,240.455,335.907z"/>
	<path fill="#010101" d="M326.361,307.271h-19.09c-5.25,0-9.545-4.295-9.545-9.545s4.295-9.545,9.545-9.545h19.09
		c5.25,0,9.545,4.295,9.545,9.545S331.611,307.271,326.361,307.271z"/>
	<path fill="#010101" d="M307.271,259.545c-2.444,0-4.887-0.935-6.758-2.787c-3.723-3.723-3.723-9.774,0-13.497l19.09-19.09
		c3.704-3.723,9.774-3.723,13.497,0c3.704,3.723,3.704,9.774,0,13.497l-19.09,19.09C312.158,258.61,309.715,259.545,307.271,259.545
		L307.271,259.545z"/>
</g>
</svg>
