<?xml version="1.0" encoding="utf-8"?>
<!-- Generator: Adobe Illustrator 17.0.2, SVG Export Plug-In . SVG Version: 6.00 Build 0)  -->
<!DOCTYPE svg PUBLIC "-//W3C//DTD SVG 1.1//EN" "http://www.w3.org/Graphics/SVG/1.1/DTD/svg11.dtd">
<svg version="1.1" id="Calque_1" xmlns="http://www.w3.org/2000/svg" xmlns:xlink="http://www.w3.org/1999/xlink" x="0px" y="0px"
	 width="500px" height="500px" viewBox="0 0 500 500" enable-background="new 0 0 500 500" xml:space="preserve">
<g>
	<path fill="#010101" d="M250.038,386.661c-33.441,0-60.646-27.2-60.646-60.64s27.205-60.646,60.646-60.646
		s60.646,27.205,60.646,60.646S283.478,386.661,250.038,386.661z M250.038,287.779c-21.082,0-38.236,17.155-38.236,38.236
		c0,21.082,17.155,38.231,38.236,38.231c21.087,0,38.236-17.155,38.236-38.231C288.274,304.933,271.125,287.779,250.038,287.779z
		 M266.845,313.808c-6.191,0-11.205,5.014-11.205,11.205s5.014,11.205,11.205,11.205s11.205-5.014,11.205-11.205
		C278.05,318.822,273.036,313.808,266.845,313.808z M233.231,313.808c-6.191,0-11.205,5.014-11.205,11.205
		s5.014,11.205,11.205,11.205c6.191,0,11.205-5.014,11.205-11.205C244.435,318.822,239.421,313.808,233.231,313.808z
		 M422.132,55.336c-11.944-7.294-30.062-6.594-48.444,1.882c-18.606,8.566-35.217,23.721-46.786,42.668
		c-1.894,3.098-3.653,6.263-5.339,9.451c-21.698-10.314-45.945-16.107-71.52-16.118l0,0c-0.017,0-0.028,0-0.045,0s-0.028,0-0.045,0
		l0,0c-25.575,0.017-49.822,5.81-71.52,16.118c-1.692-3.182-3.445-6.348-5.339-9.451c-11.563-18.947-28.18-34.102-46.786-42.668
		c-18.387-8.476-36.505-9.177-48.444-1.882c-20.863,12.734-21.272,49.57-0.818,89.902l22.824,41.48
		C88.84,209.032,82.61,234.125,82.61,260.652c0,67.946,40.192,128.11,102.709,154.312c14.482,21.782,38.365,34.679,64.646,34.707
		v0.006c0.017,0,0.028,0,0.045,0s0.028,0,0.045,0v-0.006c26.281-0.028,50.158-12.925,64.646-34.707
		c62.517-26.202,102.709-86.366,102.709-154.312c0-26.527-6.23-51.62-17.261-73.935l22.824-41.48
		C443.404,104.906,442.995,68.07,422.132,55.336z M96.846,134.772c-16.146-31.855-14.572-55.878-7.317-60.31
		c4.426-2.689,14.611-2.784,27.396,3.109c14.605,6.728,27.76,18.802,37.032,33.995c1.754,2.868,3.373,5.804,4.919,8.745
		c-17.9,11.67-33.429,26.656-45.727,44.091L96.846,134.772z M303.025,395.518c-2.303,0.902-4.241,2.549-5.507,4.672
		c-10.135,16.947-27.894,27.065-47.525,27.076c-19.631-0.017-37.39-10.135-47.525-27.076c-1.272-2.123-3.205-3.77-5.507-4.672
		c-55.861-22.012-91.952-74.943-91.952-134.861c0-79.957,65.038-145.007,144.984-145.035
		c79.952,0.028,144.984,65.077,144.984,145.035C394.977,320.575,358.887,373.507,303.025,395.518z M403.14,134.772l-16.309,29.631
		c-12.297-17.44-27.827-32.427-45.727-44.091c1.546-2.941,3.171-5.877,4.919-8.745c9.278-15.194,22.426-27.267,37.032-33.995
		c12.785-5.888,22.975-5.798,27.396-3.109C417.717,78.894,419.286,102.917,403.14,134.772z"/>
</g>
</svg>
