<?xml version="1.0" encoding="utf-8"?>
<!-- Generator: Adobe Illustrator 17.0.2, SVG Export Plug-In . SVG Version: 6.00 Build 0)  -->
<!DOCTYPE svg PUBLIC "-//W3C//DTD SVG 1.1//EN" "http://www.w3.org/Graphics/SVG/1.1/DTD/svg11.dtd">
<svg version="1.1" id="Calque_1" xmlns="http://www.w3.org/2000/svg" xmlns:xlink="http://www.w3.org/1999/xlink" x="0px" y="0px"
	 width="500px" height="500px" viewBox="0 0 500 500" enable-background="new 0 0 500 500" xml:space="preserve">
<g>
	<path fill="#010101" d="M244.057,70.377c3.723,0,6.569,2.69,9.925,4.221c2.006-0.179,3.845-0.263,5.531-0.263
		c14.417,0,17.657,6.109,18.033,10.739c-1.411-0.268-2.847-0.425-4.3-0.425c-0.478,0-0.958,0.017-1.44,0.053
		c-1.536,0.152-3.1,0.512-4.56,1.228c-0.728,0.356-1.412,0.816-2.052,1.336c-0.62,0.552-1.176,1.168-1.66,1.848
		c-1.888,2.796-2.204,6.18-2.08,9.256c0.132,2.436,0.576,4.796,1.156,7.112c-0.6,0-1.192,0.032-1.8,0.092
		c-1.268,0.144-2.568,0.408-3.828,0.98c-1.256,0.576-2.484,1.52-3.248,2.824c-0.792,1.292-1.032,2.78-1.016,4.124
		c0.004,0.632,0.108,1.416,0.22,1.94c0.068,0.54,0.236,1.2,0.436,1.868c0.184,0.652,0.46,1.248,0.772,1.864
		c0.312,0.604,0.72,1.172,1.204,1.704c0.648,0.704,1.472,1.248,2.348,1.624c-1.088,0.82-2.012,1.892-2.592,3.124
		c-0.328,0.724-0.568,1.472-0.728,2.228c-0.152,0.748-0.22,1.452-0.26,2.216c-0.072,1.46,0,2.904,0.18,4.34
		c0.196,1.428,0.5,2.856,1.004,4.252c0.252,0.7,0.572,1.388,1,2.056c0.364,0.672,1.108,1.308,1.588,1.696
		c0.52,0.436,1.232,0.908,1.832,1.272c0.632,0.368,1.268,0.704,1.916,1.008c0.7,0.324,1.392,0.62,2.116,0.888
		c-0.136,0.084-0.276,0.152-0.416,0.24c-0.708,0.464-1.388,1.004-1.972,1.652c-1.192,1.268-1.904,3.148-1.66,4.92
		c0.216,1.768,1.052,3.3,2.028,4.616c0.932,1.264,2.028,2.368,3.164,3.404c-0.072,1.176,0,2.3,0.144,3.428
		c0.212,1.212,0.468,2.412,0.888,3.56c0.392,1.16,0.904,2.276,1.512,3.332c0.32,0.516,0.588,1.068,0.96,1.552l1.096,1.46
		c0.836,0.88,1.62,1.816,2.58,2.564c0.48,0.38,0.896,0.82,1.408,1.144l1.5,1.02c0.996,0.68,2.108,1.168,3.16,1.76
		c0.668,0.296,1.348,0.572,2.028,0.848c-1.188,3.876-11.56,38.624-8.644,55.736c3.088,18.14,2.832,45.34,1.676,52.644
		c-0.102,0.648-0.116,0.946-0.054,0.946c0.632,0,9.163-31.326,11.342-38.502c2.396-7.868,6.852-32.488,5.572-49.956
		c-0.972-13.324-6.14-18.668-8.548-20.456l0.048-0.136c-0.224-0.108-0.468-0.216-0.712-0.32c-0.344-0.22-0.572-0.324-0.572-0.324
		s-0.012,0.04-0.012,0.06c-0.66-0.292-1.316-0.572-1.96-0.876c-1.024-0.616-2.112-1.12-3.072-1.82l-1.432-1.036
		c-0.496-0.328-0.904-0.772-1.352-1.152c-0.92-0.752-1.656-1.684-2.444-2.556l-1.024-1.44c-0.356-0.472-0.596-1.016-0.892-1.516
		c-0.56-1.028-1.024-2.116-1.368-3.236c-0.716-2.212-1.036-4.62-0.808-6.868l0.024-0.268l-0.184-0.18
		c-1.136-1.084-2.196-2.236-3.064-3.496c-0.868-1.248-1.54-2.652-1.656-4.068c-0.132-1.416,0.424-2.756,1.416-3.796
		c0.98-1.024,2.348-1.82,3.692-2.3l2.416-0.86l-2.516-0.676c-1.184-0.312-2.492-0.872-3.668-1.456
		c-0.608-0.3-1.184-0.628-1.748-0.984c-0.564-0.368-1.024-0.668-1.556-1.128c-0.576-0.504-0.912-0.784-1.216-1.34
		c-0.316-0.508-0.564-1.088-0.772-1.696c-0.408-1.224-0.66-2.532-0.804-3.856c-0.136-1.32-0.16-2.66-0.068-3.968
		c0.04-0.62,0.128-1.296,0.272-1.904c0.14-0.6,0.336-1.172,0.596-1.708c0.54-1.06,1.364-1.92,2.376-2.532
		c0.52-0.292,1.068-0.54,1.648-0.716c0.564-0.172,1.232-0.3,1.724-0.324l-0.052-2.432c-0.683,0.028-1.078,0.062-1.533,0.062
		c-0.065,0-0.131-0.001-0.199-0.002c-0.504-0.024-1-0.072-1.456-0.196c-0.924-0.216-1.696-0.688-2.288-1.364
		c-0.292-0.348-0.544-0.736-0.764-1.168c-0.188-0.436-0.404-0.908-0.512-1.372c-0.12-0.46-0.248-0.928-0.312-1.548
		c-0.096-0.612-0.136-0.992-0.136-1.524c-0.02-1.992,0.872-3.448,2.644-4.208c0.852-0.408,1.864-0.644,2.904-0.772
		c0.569-0.067,1.176-0.1,1.77-0.1c0.475,0,0.942,0.021,1.374,0.064l2.18,0.208l-0.616-2.064c-0.82-2.78-1.592-5.576-1.852-8.404
		c-0.264-2.796-0.012-5.664,1.292-7.964c0.348-0.568,0.744-1.088,1.2-1.572c0.476-0.452,1-0.876,1.588-1.228
		c1.16-0.696,2.508-1.14,3.916-1.392c1.197-0.232,2.429-0.333,3.674-0.333c1.676,0,3.375,0.183,5.042,0.477l0.004-0.028
		c1.456,0.496,2.616,1.092,3.448,1.776c3.055-6.387,7.978-8.606,13.345-8.605c8.751,0.001,18.682,5.9,23.611,9.249
		c2.388-3.892,5.912-8.676,8.972-8.796c0.075-0.003,0.153-0.004,0.234-0.004c5.506,0.001,24.504,6.802,24.646,14.8
		c0.04,2.668-0.22,4.988-0.748,7.264c1.116-0.171,2.338-0.288,3.602-0.288c6.554,0,14.218,3.125,13.886,17.88
		c12.448,8.8,12.96,15.448,10.844,19.688c5.82,1.556,19.66,7.02,5.844,21.428c0.044,0.22,0.092,0.452,0.136,0.672
		c4.656,2.82,12.704,9.196,11.256,18.88c-1.329-0.325-2.724-0.513-4.129-0.513c-1.602,0-3.218,0.245-4.763,0.809
		c-3.052,1.116-5.588,3.32-7.356,5.832c-0.936,1.24-1.644,2.6-2.312,3.96c-0.508,1.096-0.924,2.22-1.312,3.352
		c-1.056-0.508-2.132-0.912-3.296-1.092c-0.408-0.062-0.828-0.097-1.25-0.097c-1.119,0-2.255,0.24-3.23,0.833
		c-1.244,0.732-3.2,1.964-3.74,3.184c-1.972,1.456-1.74,2.752-7.708,9.064c-6.356,6.708-11.428,11.82-16.336,16.092
		c-7.28,5.376-14.864,12.388-18.364,17.86c-4.292,6.7-4.288,6.696-4.292,6.7c-1.336,1.16-2.764,2.424-4.376,3.916
		c-7.676,7.104-21.004,61.908-21.004,61.908c14.292-24.576,15.716-28.156,15.716-28.156c3.072-9.032,10.456-22.756,15.804-33.732
		l7.86-10.58c12.896-11.496,30.34-28.032,32.26-35.004c0.804-2.9,1.356-5.024,1.584-6.42c0.14-0.372,0.252-0.748,0.436-1.096
		c0.592-1.22,1.472-2.304,2.632-2.852c0.688-0.331,1.422-0.472,2.172-0.472c1.788,0,3.658,0.805,5.16,1.76l0.844,0.544l0.38-0.96
		c0.536-1.336,1.108-2.636,1.788-3.876c0.704-1.22,1.432-2.42,2.344-3.46c1.74-2.144,4.048-3.664,6.536-4.448
		c1.26-0.356,2.548-0.648,3.88-0.712c0.441-0.034,0.885-0.05,1.332-0.05c0.906,0,1.824,0.064,2.748,0.166
		c2.444,0.288,4.916,0.944,7.356,1.792c4.684,3.38,6.556,8.272,7.164,12.684c0.144,0.132,0.276,0.264,0.408,0.396
		c1.24-0.149,2.564-0.249,3.897-0.249c7.187,0,14.582,2.89,9.975,16.365c10.38,3.016,15.672,12.444,5.572,21
		c0.004,0.112,0.016,0.228,0.02,0.344c4.696,5.56,16.132,22.788-11.212,33.228c1.371,4.825-0.039,16.964-12.266,16.964
		c-1.111,0-2.314-0.1-3.61-0.316c-2.96,5.252-3.256,9.588-14.86,11.548c0,0-0.231,0.01-0.641,0.01
		c-3.025,0-15.795-0.549-17.383-9.754c0,0-42.916,8.476-56.8,62.264c-13.876,53.784-21.716,79.22-21.716,79.22l-75.268,1.564
		l-21.996-0.4c0,0,0.444-80.704-2.508-93.632c-2.948-12.928-3.68-56.984-57.888-120.78c0,0-1.164,1.184-3.268,2.78
		c-0.412,3.604-1.876,8.46-6.384,12.2c-2.65,2.196-5.714,3.312-8.827,3.312c-4.509,0-9.123-2.343-12.729-7.144
		c-0.088-0.012-0.18-0.016-0.272-0.024c-2.744,3.264-6.1,6.216-9.84,7.312c-0.429,0.125-0.892,0.186-1.384,0.186
		c-9.198,0-28.513-21.146-22.768-35.438c-0.97,0.248-1.953,0.41-2.865,0.41c-1.56,0-2.913-0.475-3.635-1.81
		c-2.508-4.648-13.808-14.488,0.376-27.792c1.708-1.608,3.296-3.024,4.772-4.3c-4.692-3.532-9.228-9.104-7.828-17.06
		c1.546-8.802,10.27-13.284,18.456-13.283c2.893,0,5.719,0.56,8.136,1.687c0.236-0.156,0.476-0.308,0.716-0.464
		c1.608-6.112,5.532-11.732,14.056-14.06c4.662-1.273,8.321-1.833,11.194-1.833c6.26,0,8.786,2.658,9.806,6.381
		c1.357-3.223,3.467-5.866,6.72-5.866c0.715,0,1.486,0.128,2.316,0.406c1.836,0.944,3.6,2.004,5.14,3.272
		c1.956,1.692,3.668,3.612,4.496,5.888c0.396,1.136,0.632,2.304,0.696,3.496c0.068,1.2-0.084,2.408-0.332,3.616
		c-0.216,1.22-0.668,2.408-1.116,3.6c-0.492,1.188-1.084,2.34-1.724,3.48l-0.808,1.432l1.516,0.432
		c1.596,0.452,3.272,1.088,4.836,1.82c1.58,0.736,3.112,1.572,4.548,2.54c2.868,1.92,5.424,4.396,6.868,7.488
		c0.356,0.772,0.66,1.568,0.856,2.396c0.236,0.816,0.332,1.672,0.392,2.528c0.064,0.856,0.008,1.72-0.076,2.58
		c-0.148,0.852-0.248,1.728-0.524,2.56c-0.216,0.852-0.524,1.676-0.86,2.492c-0.296,0.836-0.756,1.6-1.128,2.404
		c-0.84,1.564-1.82,3.06-2.86,4.512l0.224,0.18c1.136-1.4,2.212-2.852,3.164-4.392c0.424-0.8,0.94-1.556,1.296-2.396
		c0.4-0.816,0.764-1.652,1.044-2.532c0.34-0.852,0.504-1.764,0.712-2.664c0.144-0.92,0.256-1.84,0.248-2.78
		c-0.012-0.928-0.064-1.876-0.276-2.796c-0.152-0.932-0.464-1.832-0.816-2.7c-1.452-3.508-4.144-6.324-7.108-8.508
		c-1.492-1.104-3.076-2.064-4.716-2.912c-1.192-0.612-2.408-1.156-3.66-1.66c0.468-0.784,0.956-1.552,1.364-2.384
		c0.604-1.304,1.144-2.648,1.468-4.084c0.724-2.828,0.56-6.08-0.748-8.82c-1.04-2.128-2.58-3.912-4.368-5.284
		c2.26-6.729,6.173-8.689,9.963-8.688c0.711,0,1.418,0.069,2.109,0.188c1.368-1.02,2.82-2.012,4.34-2.94
		c3.61-7.103,7.373-9.423,10.75-9.422c2.988,0,5.675,1.818,7.682,3.746c0.936,0.016,1.872,0.088,2.816,0.212
		c1.985-0.462,3.82-0.673,5.517-0.672c9.062,0,14.162,5.996,16.935,11.568c0.236-1.872,0.716-3.424,1.356-4.732
		c-8.412-12.336-0.88-14.816,6.24-14.884c0.012-0.008,0.016-0.016,0.028-0.028c0.567-6.388,3.262-14.052,12.929-14.052
		c1.713,0,3.645,0.241,5.823,0.772c0.056-0.024,0.112-0.056,0.172-0.084c0.588-2.428,2.052-5.248,5.072-8.328
		C238.303,71.744,241.403,70.377,244.057,70.377 M173.314,162.451l-1.372-14.416l-3.968,9.352L173.314,162.451 M249.21,172.623
		l5.124-10.66l-4.072-2.608C250.138,169.187,249.21,172.623,249.21,172.623 M240.17,170.395l-4.72-10.24l-3.676,1.696
		L240.17,170.395 M243.862,202.923c0,0,0.208-15.892-2.128-19.328c-2.34-3.436-13.308-14.184-13.308-14.184s-1.488,8.208,9.716,21.1
		L243.862,202.923 M267.358,175.555c-5.864,1.948-9.252,2.756-9.78,9.772c-0.434,5.729,1.833,16.228,2.631,16.228
		c0.179,0,0.285-0.53,0.269-1.764C260.386,193.055,267.358,175.553,267.358,175.555L267.358,175.555L267.358,175.555
		 M187.662,249.123l-17.748-66.3l-15.412-5.692c0,0-7.644,9.54-0.204,15.892C161.738,199.375,187.662,249.127,187.662,249.123
		 M299.435,202.037c1.629,0,0.566-16.6,2.004-19.471c1.572-3.128-2.344-5.088-2.344-5.088s-2.496,20.712-0.156,24.152
		C299.127,201.909,299.291,202.037,299.435,202.037 M145.754,192.443l-2.424-10.168l-6.012-3.248l3.716,8.068L145.754,192.443
		 M314.958,208.878c3.754,0,17.924-26.648,17.924-26.648s-19.1,14.788-18.824,24.832
		C314.094,208.326,314.418,208.878,314.958,208.878 M235.046,316.059C235.046,316.059,235.046,316.059,235.046,316.059
		C235.046,316.059,235.046,316.059,235.046,316.059c0-0.007,0.036-1.761,0.072-4.46c0.148-6.968,0.632-21.656,2.148-40.944
		c2.14-27.296-8.436-66.072-12.12-76.416c-2.498-7.022-10.612-8.682-16.819-8.682c-2.936,0-5.446,0.371-6.733,0.722
		c-4.008,1.096-1.968,13.696-1.968,13.696c9.656,42.188,32.628,79.004,34.344,82.724c1.296,2.82,1.248,20.48,1.148,28.9
		C235.051,314.481,235.046,316.052,235.046,316.059 M327.565,208.53c0.466,0,1.072-0.194,1.826-0.615
		c7.564-4.236,15.696-22.056,15.696-22.056C330.634,192.712,323.357,208.53,327.565,208.53 M350.28,246.215
		c0.307,0,0.753-0.129,1.358-0.408c8.064-3.716,12.228-19.172,12.228-19.172S346.503,246.215,350.28,246.215 M373.795,244.491
		c1.591,0,3.24-0.556,3.24-0.556c3.96-7.884,3.792-11.568,3.792-11.568l-7.528,3.468c0,0-2.12,1.764-2.416,6.02
		C370.736,243.959,372.238,244.491,373.795,244.491 M383.193,253.523c1.302,0,3.33-0.463,6.485-1.916
		c8.673-3.99,17.065-10.097,14.172-10.096c-0.01,0-0.021,0-0.032,0c-2.028,0.028-5.316,1.788-11.636,5
		c-3.02,1.536-6.732,3.4-11.328,5.58C380.854,252.091,380.903,253.523,383.193,253.523 M344.228,268.624
		c3.279,0,16.468-9.702,20.818-21.465c0,0-14.376,9.624-20.46,18.452C343.148,267.695,343.213,268.624,344.228,268.624
		 M402.19,255.947l16.956-4.02l-19.08-0.596l-4.756,2.188L402.19,255.947 M362.737,281.645c0.314,0,0.951-0.37,2.006-1.246
		c6.1-5.072,31.5-14.508,31.5-14.508c-0.641-1.808-2.422-2.509-4.78-2.509c-6.926,0-18.827,6.044-21.42,7.805
		C367.163,273.133,361.231,281.645,362.737,281.645 M244.058,57.377C244.058,57.377,244.058,57.377,244.058,57.377
		c-6.643,0-12.885,3.071-19.084,9.389c-1.207,1.231-2.297,2.491-3.268,3.779c-10.434,0.497-18.306,6.265-22.086,15.775
		c-4.392,1.616-7.214,4.154-9.026,6.695c-1.593-0.25-3.227-0.378-4.894-0.378c-1.376,0-2.779,0.086-4.202,0.257
		c-4.556-2.84-8.766-3.542-11.813-3.543c-5.645-0.001-13.403,2.261-19.932,12.333c-4.781,0.564-9.054,2.616-12.512,5.915
		c-1.594-0.395-3.197-0.595-4.783-0.595c-1.526,0-3.938,0.209-6.622,1.226c-2.918-1.145-6.242-1.742-9.903-1.742
		c-4.19,0-8.973,0.75-14.62,2.292c-7.764,2.12-13.976,6.396-18.211,12.401c-0.422-0.015-0.846-0.023-1.27-0.023
		c-6.757-0.001-13.445,1.938-18.831,5.459c-6.678,4.365-11.093,10.962-12.43,18.576c-1.156,6.571-0.139,12.854,2.892,18.479
		c-6.711,8.264-7.522,16.126-6.85,21.599c0.923,7.515,4.835,13.03,7.173,16.325c0.309,0.436,0.727,1.025,0.883,1.272
		c1.048,1.907,2.434,3.539,4.077,4.85c0.785,6.184,3.356,12.633,7.651,18.989c6.15,9.1,17.416,19.727,28.926,19.727
		c1.731,0,3.424-0.238,5.031-0.708c2.208-0.647,4.368-1.611,6.471-2.886c3.962,2.127,8.295,3.264,12.723,3.264
		c6.225,0,12.146-2.179,17.122-6.302c0.972-0.807,1.886-1.662,2.738-2.562c13.878,18.223,24.51,36.312,31.696,53.948
		c7.342,18.019,9.463,31.358,10.866,40.185c0.433,2.724,0.807,5.077,1.271,7.109c1.639,7.18,2.397,51.738,2.183,90.67l-0.071,12.836
		l12.834,0.233l21.996,0.4l0.253,0.005l0.253-0.005l75.268-1.564l9.388-0.195l2.766-8.973c0.324-1.05,8.088-26.34,21.881-79.802
		c4.85-18.791,14.134-33.347,27.592-43.262c4.198-3.093,8.193-5.25,11.443-6.719c2.531,2.163,5.602,3.896,9.126,5.1
		c5.407,1.848,10.738,2.124,13.434,2.124c0.773,0,1.208-0.022,1.208-0.022l0.752-0.039l0.846-0.13
		c11.425-1.93,16.84-6.333,20.278-11.317c6.68-0.914,12.377-4.16,16.311-9.367c2.776-3.676,4.353-7.931,5.02-12.08
		c9.018-5.07,14.632-11.729,16.732-19.871c1.116-4.33,1.859-12.032-2.736-21.194c2.414-4.718,3.172-9.836,2.093-14.897
		c-1.173-5.504-4.378-10.334-9.072-13.963c0.055-4.964-1.254-9.338-3.925-13.074c-2.496-3.491-7.064-7.54-15.163-8.797
		c-2.159-4.288-5.25-7.927-9.184-10.766l-1.543-1.113l-0.769-0.267c-0.988-5.019-3.376-9.747-7.04-13.956
		c2.487-5.849,2.198-10.826,1.179-14.471c-1.508-5.394-5.134-9.897-10.509-13.199c-0.327-1.668-0.843-3.331-1.548-4.966
		c-1.956-4.535-5.299-8.826-10.154-13.01c-0.871-6.905-3.396-12.527-7.543-16.769c-2.649-2.709-5.837-4.714-9.446-5.967
		c-4.135-16.018-29.089-23.316-37.063-23.317c-0.263,0-0.512,0.005-0.754,0.015c-4.57,0.179-8.378,2.21-11.526,4.965
		c-6.247-3.051-13.402-5.428-20.536-5.429c-4.953,0-9.519,1.166-13.489,3.366c-0.667-0.677-1.38-1.317-2.138-1.917
		c-5.397-4.274-12.918-6.442-22.353-6.442c-0.836,0-1.694,0.017-2.572,0.05C254.008,59.663,249.759,57.378,244.058,57.377
		L244.058,57.377L244.058,57.377z M218.53,218.734c-2.161-6.304-4.13-12.882-5.747-19.598c0.134,0.044,0.25,0.087,0.349,0.128
		C214.506,203.253,216.55,210.272,218.53,218.734L218.53,218.734z"/>
</g>
</svg>
